<svg width="54" height="54" viewBox="0 0 54 54" fill="none" xmlns="http://www.w3.org/2000/svg">
<g clip-path="url(#clip0_135_495)">
<path fill-rule="evenodd" clip-rule="evenodd" d="M20.4031 23.0917C21.3706 23.4742 22.3988 23.679 23.4383 23.6992C24.3083 23.7547 25.1783 23.7547 26.0483 23.6992C27.8461 23.5642 29.1713 23.1592 31.6216 23.0467C32.1166 23.0467 33.5566 23.2042 34.4791 23.0467C34.9651 23.0081 35.4349 22.8538 35.8493 22.5967C36.6391 22.0117 37.2173 21.1792 37.4918 20.2342C37.8968 18.5287 38.0251 16.7692 37.8743 15.0187C37.8743 13.7362 38.0521 11.3332 37.8743 9.37574C37.8244 8.39311 37.5796 7.43021 37.1543 6.54299C36.5807 5.56373 35.9098 4.64483 35.1518 3.80024C34.0865 2.58236 32.9449 1.4333 31.7341 0.359991C31.4626 0.117273 31.1081 -0.0116376 30.7441 -8.8645e-06C30.0016 -8.8645e-06 28.2263 0.337491 27.9338 0.359991L21.3931 1.23749C21.2304 1.25799 21.0767 1.32367 20.9494 1.42706C20.8222 1.53046 20.7264 1.66745 20.6731 1.82249C20.6175 1.67035 20.5164 1.53903 20.3836 1.44642C20.2507 1.35382 20.0925 1.30443 19.9306 1.30499C19.8301 1.3079 19.7312 1.33059 19.6395 1.37175C19.5478 1.41291 19.4651 1.47174 19.3961 1.54487C19.3272 1.61801 19.2733 1.70401 19.2376 1.79798C19.2019 1.89194 19.1851 1.99202 19.1881 2.09249L18.9631 15.4462C18.9631 16.4362 18.6481 18.0787 18.6256 19.4715C18.5896 20.1915 18.6796 20.916 18.8956 21.609C19.0319 21.9462 19.236 22.2519 19.4953 22.5069C19.7547 22.762 20.0636 22.961 20.4031 23.0917ZM33.3541 5.33024C33.9728 6.07274 34.5173 6.88049 34.9741 7.73549C35.1406 8.14274 35.2373 8.57699 35.2643 9.01799L35.1293 8.99549C33.8585 8.7494 32.5747 8.57661 31.2841 8.47799C30.811 8.40884 30.354 8.25649 29.9341 8.02799C29.9341 7.64549 30.1141 7.03799 30.1141 6.61049V4.47299L29.9791 2.54024C30.2941 2.54024 30.5641 2.54024 30.6766 2.31524C31.6246 3.27224 32.5171 4.27724 33.3541 5.33024ZM21.5956 3.08024L28.0463 2.49524L27.7088 4.40774C27.7088 4.58774 27.4613 5.35274 27.3038 6.23024C27.2164 6.89345 27.1713 7.56155 27.1688 8.23049C27.1423 8.62438 27.2054 9.01917 27.3535 9.38513C27.5016 9.75108 27.7308 10.0787 28.0238 10.3432C28.7506 10.7482 29.5561 10.9845 30.3863 11.0407C31.8713 11.0407 33.4216 10.6807 34.8818 10.7707C35.021 10.814 35.1701 10.814 35.3093 10.7707C35.3093 12.4807 35.0618 14.2785 35.0618 15.2662C35.1473 16.3237 35.1473 17.3812 35.0618 18.4387C34.6118 21.9667 33.0143 20.214 31.5766 20.2815C29.0813 20.439 27.7313 20.844 25.8886 21.024C25.1393 21.0709 24.3878 21.0709 23.6386 21.024C23.0588 21.0348 22.4794 20.9896 21.9083 20.889C21.7058 20.889 21.4808 20.574 21.3683 20.6865C21.2221 20.1442 21.1614 19.5825 21.1883 19.0215C21.1883 17.739 21.3458 16.3665 21.3008 15.5137L20.7383 2.51774C20.8188 2.67022 20.9436 2.79478 21.0962 2.87509C21.2487 2.9554 21.422 2.9877 21.5933 2.96774L21.5956 3.08024ZM49.0681 43.056C48.7627 42.7295 48.4053 42.4558 48.0106 42.246C47.6972 42.1169 47.3745 42.0116 47.0453 41.931C47.8331 41.2055 48.3945 40.2678 48.6619 39.2308C48.9294 38.1937 48.8915 37.1015 48.5528 36.0855C48.1602 34.8277 47.3996 33.7165 46.3693 32.8951C45.339 32.0737 44.0862 31.58 42.7726 31.4775C41.5769 31.3913 40.3918 31.7521 39.4471 32.49C38.2245 33.5155 37.4234 34.956 37.1971 36.5355C36.9901 37.4263 37.0364 38.3573 37.3306 39.2232C37.6248 40.0892 38.1553 40.8556 38.8621 41.436C38.2771 41.5755 37.7146 41.778 37.1746 42.0435C36.8073 42.2554 36.4737 42.5208 36.1846 42.831C35.8973 43.1538 35.6481 43.5086 35.4421 43.8885C34.9842 44.7539 34.7021 45.7013 34.6118 46.6762C34.211 46.1773 33.7413 45.7379 33.2168 45.3712C32.6728 45.0384 32.1015 44.7523 31.5091 44.5162C32.2446 43.6831 32.7449 42.669 32.9585 41.5783C33.172 40.4877 33.0911 39.3598 32.7241 38.3107C32.1416 36.6234 30.9306 35.2259 29.3432 34.4093C27.7559 33.5928 25.9147 33.4203 24.2033 33.9277C23.1151 34.2686 22.1311 34.8795 21.3429 35.7036C20.5547 36.5276 19.9882 37.5379 19.6961 38.6402C19.404 39.7425 19.3959 40.9007 19.6726 42.007C19.9493 43.1132 20.5017 44.1313 21.2783 44.9662C20.9633 45.1012 20.6258 45.2137 20.3356 45.3712C19.7911 45.7147 19.2886 46.1122 18.8281 46.5637C18.8281 46.6987 18.6481 46.8562 18.5356 46.9687C18.4268 45.9662 18.121 44.9951 17.6356 44.1112C17.4133 43.7192 17.1335 43.3627 16.8053 43.0537C16.507 42.745 16.166 42.4806 15.7928 42.2685C15.4618 42.1437 15.1237 42.0385 14.7803 41.9535C15.5724 41.2261 16.1364 40.2845 16.404 39.243C16.6716 38.2014 16.6312 37.1046 16.2878 36.0855C15.8828 34.8623 15.1282 33.7846 14.1173 32.9856C13.1064 32.1867 11.8835 31.7015 10.5998 31.59C9.41022 31.5024 8.23096 31.8636 7.29456 32.6025C6.06614 33.6228 5.26425 35.066 5.04681 36.648C4.83449 37.5387 4.87814 38.4713 5.17271 39.3383C5.46729 40.2053 6.00081 40.9715 6.71181 41.5485C6.11992 41.6935 5.54629 41.9048 5.00181 42.1785C4.63731 42.4065 4.30731 42.6765 4.01181 42.9885C3.72451 43.3113 3.47536 43.6661 3.26931 44.046C2.77517 44.8901 2.44751 45.8212 2.30406 46.7887C2.26924 46.8966 2.25621 47.0102 2.2657 47.1231C2.2752 47.236 2.30705 47.3459 2.35938 47.4464C2.41172 47.5469 2.48351 47.636 2.57058 47.7085C2.65764 47.781 2.75825 47.8355 2.86656 47.8687C3.08444 47.9408 3.32187 47.9246 3.52796 47.8236C3.73405 47.7227 3.89239 47.545 3.96906 47.3287C4.17606 46.9402 4.42356 46.5802 4.71156 46.2487C4.99356 45.9397 5.29281 45.6472 5.60931 45.3712L6.44181 44.4937C6.98931 43.7827 7.58931 43.116 8.24181 42.4935C8.38639 42.4155 8.49758 42.2875 8.55456 42.1335H8.93706C9.1422 42.1397 9.34166 42.0655 9.49296 41.9269C9.64425 41.7882 9.73542 41.5959 9.74706 41.391C9.73635 41.2095 9.65943 41.0382 9.53087 40.9097C9.40231 40.7811 9.23105 40.7042 9.04956 40.6935C7.11456 40.446 6.79956 38.6707 7.22706 37.098C7.65456 35.5252 8.73456 34.2405 10.3321 34.443C11.0771 34.4931 11.7917 34.7577 12.3898 35.2048C12.9878 35.6519 13.4438 36.2626 13.7026 36.963C14.0237 37.6571 14.0961 38.4406 13.9076 39.1819C13.7191 39.9231 13.2813 40.5768 12.6676 41.0332C12.3832 41.2544 12.0524 41.4082 11.7001 41.4832C11.2651 41.5732 10.8233 41.6332 10.3748 41.6632C10.2332 41.6709 10.0956 41.7128 9.97378 41.7853C9.85193 41.8578 9.74946 41.9588 9.67515 42.0796C9.60084 42.2003 9.5569 42.3373 9.54709 42.4787C9.53727 42.6202 9.56188 42.7619 9.61881 42.8917C9.68966 43.0485 9.80615 43.1803 9.95307 43.2698C10.1 43.3593 10.2705 43.4024 10.4423 43.3935C11.0904 43.4262 11.74 43.3808 12.3773 43.2585H12.6923C13.2773 43.776 13.7498 44.3385 14.2426 44.8335L15.1426 45.7312C15.4726 46.0057 15.7876 46.2982 16.0876 46.6087C16.3816 46.9477 16.6366 47.3152 16.8526 47.7112C16.9087 47.875 17.0145 48.0172 17.1553 48.118C17.296 48.2188 17.4647 48.2733 17.6378 48.2737C16.9259 49.516 16.4528 50.8805 16.2428 52.2967C16.1901 52.411 16.1626 52.5352 16.1621 52.6611C16.1616 52.7869 16.1882 52.9113 16.2401 53.026C16.292 53.1406 16.3679 53.2428 16.4627 53.3255C16.5575 53.4082 16.6689 53.4696 16.7895 53.5054C16.9102 53.5413 17.0371 53.5508 17.1617 53.5333C17.2863 53.5158 17.4056 53.4717 17.5117 53.404C17.6178 53.3363 17.708 53.2466 17.7764 53.141C17.8447 53.0353 17.8895 52.9162 17.9078 52.7917C18.6154 51.2701 19.6251 49.9082 20.8756 48.789L21.9331 47.799C22.4761 47.3025 23.0528 46.845 23.6633 46.4265C23.7383 46.4302 23.8134 46.4302 23.8883 46.4265C25.0403 46.629 26.2193 46.629 27.3736 46.4265C27.4396 46.449 27.5071 46.449 27.5761 46.4265C27.6886 46.5871 27.8516 46.7054 28.0392 46.7625C28.2268 46.8196 28.4282 46.8122 28.6111 46.7415C28.9411 46.59 29.2553 46.41 29.5538 46.2015C30.2213 46.7055 30.8588 47.2455 31.4663 47.8215C31.8263 48.1815 32.1391 48.5415 32.4316 48.879C33.554 50.197 34.403 51.7252 34.9291 53.3745C34.9625 53.4854 35.0175 53.5886 35.091 53.6782C35.1645 53.7677 35.255 53.8418 35.3573 53.8962C35.4596 53.9506 35.5716 53.9842 35.687 53.995C35.8023 54.0059 35.9187 53.9938 36.0293 53.9595C36.2485 53.901 36.4375 53.7618 36.5585 53.5699C36.6795 53.378 36.7235 53.1475 36.6818 52.9245C36.5778 51.4593 36.275 50.0151 35.7818 48.6315C35.6462 48.3493 35.4882 48.0784 35.3093 47.8215C35.5118 47.8669 35.7238 47.8372 35.906 47.7378C36.0881 47.6385 36.2279 47.4763 36.2993 47.2815C36.5213 46.899 36.7763 46.539 37.0643 46.2015C37.3118 45.8865 37.6493 45.6637 37.9418 45.3487C38.2321 45.0337 38.5021 44.8087 38.7721 44.4937C39.3196 43.7887 39.9196 43.1295 40.5721 42.516C40.726 42.4429 40.8465 42.3143 40.9096 42.156H41.2898C41.4927 42.156 41.6873 42.0754 41.8307 41.9319C41.9742 41.7885 42.0548 41.5939 42.0548 41.391C42.0548 41.1881 41.9742 40.9935 41.8307 40.8501C41.6873 40.7066 41.4927 40.626 41.2898 40.626C39.3773 40.3785 39.0398 38.6032 39.4673 37.0305C39.8948 35.4577 40.9973 34.173 42.5948 34.3755C43.3367 34.427 44.0478 34.6925 44.642 35.1397C45.2362 35.5869 45.688 36.1968 45.9428 36.8955C46.2936 37.585 46.3934 38.3751 46.2251 39.1301C46.0567 39.8852 45.6308 40.5581 45.0203 41.0332C44.7278 41.2492 44.3903 41.4022 44.0326 41.4832C43.6036 41.5732 43.1686 41.6332 42.7276 41.6632C42.4992 41.6749 42.2844 41.7753 42.1289 41.9429C41.9734 42.1106 41.8895 42.3324 41.8951 42.561C41.8949 42.6742 41.9178 42.7863 41.9624 42.8903C42.0071 42.9944 42.0724 43.0882 42.1546 43.1662C42.2367 43.2441 42.3339 43.3044 42.4401 43.3435C42.5464 43.3826 42.6595 43.3996 42.7726 43.3935C43.4311 43.425 44.0836 43.38 44.7301 43.2585H45.0451C45.6301 43.776 46.1026 44.316 46.5976 44.811C47.0926 45.306 47.2028 45.396 47.4953 45.6862C47.7878 45.9787 48.1478 46.2262 48.4403 46.5637C48.7253 46.9012 48.9803 47.2612 49.2053 47.6437C49.2362 47.7538 49.2889 47.8566 49.3602 47.9459C49.4316 48.0353 49.5201 48.1094 49.6206 48.164C49.7211 48.2185 49.8315 48.2523 49.9453 48.2635C50.059 48.2746 50.1739 48.2628 50.2831 48.2287C50.5025 48.1611 50.6866 48.0101 50.796 47.8082C50.9054 47.6062 50.9312 47.3695 50.8681 47.1487C50.7605 46.1185 50.4386 45.1222 49.9231 44.2237C49.7031 43.7901 49.4144 43.3972 49.0681 43.056ZM23.0131 43.8187C22.5623 43.2454 22.2657 42.5663 22.1515 41.846C22.0373 41.1257 22.1093 40.3881 22.3606 39.7035C22.5162 39.0443 22.8401 38.4368 23.3007 37.9403C23.7614 37.4438 24.3429 37.0753 24.9886 36.8707C26.0346 36.4969 27.1841 36.5381 28.2007 36.9859C29.2173 37.4337 30.0236 38.2541 30.4538 39.2782C32.9941 45.3465 24.4981 45.459 23.0131 43.8187ZM5.69931 29.52C6.03681 29.52 6.14931 29.835 7.67931 26.5072C7.88181 26.0797 8.03931 25.6072 8.19681 25.1797C9.22956 22.4842 9.56706 22.3492 9.04956 21.8317C8.03706 20.9317 5.87706 23.7442 5.85456 23.8117C5.36325 24.4399 5.03893 25.1822 4.91181 25.9695C4.77681 26.6445 4.66431 29.43 5.69931 29.52ZM51.3406 24.732C51.1904 24.3705 50.9938 24.0301 50.7556 23.7195C50.7556 23.7195 48.5056 20.8417 47.5606 21.7417C47.0003 22.2592 47.3153 22.4392 48.3481 25.092C48.5281 25.5195 48.6856 25.992 48.8656 26.4195C50.4181 29.745 50.5081 29.4525 50.8681 29.4322C51.9031 29.4322 51.7681 26.5522 51.6781 25.8772C51.6169 25.4822 51.5034 25.0971 51.3406 24.732ZM13.5451 19.6065C13.7611 19.5075 13.9636 19.3875 14.1526 19.2465C14.3516 19.1299 14.5334 18.986 14.6926 18.819C16.4026 17.3115 16.7176 17.199 16.4701 16.569C16.4701 16.3215 16.1101 15.4912 13.3201 16.4565C12.7729 16.6439 12.279 16.9603 11.8801 17.379C11.5201 17.784 10.1948 19.629 10.7348 20.169C10.9373 20.349 11.0701 20.7315 13.5451 19.6065ZM41.8276 18.819C41.9986 18.9765 42.1786 19.119 42.3676 19.2465C42.5671 19.3875 42.7771 19.5075 42.9976 19.6065C45.4951 20.7315 45.6301 20.349 45.8101 20.1465C46.3501 19.5615 45.0001 17.7615 44.6626 17.3565C44.2472 16.9473 43.7483 16.6326 43.2001 16.434C40.4348 15.4687 40.1423 16.299 40.0523 16.5465C39.8273 17.199 40.1401 17.3115 41.8276 18.819Z" fill="#FCB700"/>
</g>
<defs>
<clipPath id="clip0_135_495">
<rect width="54" height="54" fill="white"/>
</clipPath>
</defs>
</svg>
