<svg width="54" height="54" viewBox="0 0 54 54" fill="none" xmlns="http://www.w3.org/2000/svg">
<g clip-path="url(#clip0_135_500)">
<path d="M35.4375 2.32831e-10C35.8945 2.32831e-10 36.29 0.166992 36.624 0.500977L53.499 17.376C53.833 17.71 54 18.1055 54 18.5625C54 19.0195 53.833 19.415 53.499 19.749L47.0918 26.1562C47.5312 26.5957 47.9619 27.0176 48.3838 27.4219C48.8057 27.8262 49.1748 28.2393 49.4912 28.6611C49.8076 29.083 50.0713 29.5576 50.2822 30.085C50.4932 30.6123 50.5986 31.2012 50.5986 31.8516C50.5986 32.5547 50.4668 33.2227 50.2031 33.8555C49.9395 34.4883 49.5791 35.042 49.1221 35.5166C48.665 35.9912 48.1289 36.3691 47.5137 36.6504C46.8984 36.9316 46.2393 37.0811 45.5361 37.0986C45.501 37.8193 45.3516 38.4785 45.0879 39.0762C44.8242 39.6738 44.4727 40.2012 44.0332 40.6582C43.5938 41.1152 43.0664 41.4756 42.4512 41.7393C41.8359 42.0029 41.1768 42.1436 40.4736 42.1611C40.4561 42.8643 40.3066 43.5234 40.0254 44.1387C39.7441 44.7539 39.3662 45.29 38.8916 45.7471C38.417 46.2041 37.8633 46.5732 37.2305 46.8545C36.5977 47.1357 35.9297 47.2676 35.2266 47.25C34.6641 47.25 34.0928 47.1533 33.5127 46.96C33.3193 47.5049 33.0645 47.9971 32.748 48.4365C32.4316 48.876 32.0449 49.2627 31.5879 49.5967C31.1309 49.9307 30.6475 50.1855 30.1377 50.3613C29.6279 50.5371 29.0742 50.625 28.4766 50.625C28.0195 50.625 27.6152 50.5898 27.2637 50.5195C26.9121 50.4492 26.5869 50.3262 26.2881 50.1504C25.9893 49.9746 25.6904 49.7812 25.3916 49.5703C25.0928 49.3594 24.7852 49.1045 24.4688 48.8057C23.8535 49.3682 23.2559 49.8076 22.6758 50.124C22.0957 50.4404 21.3574 50.6074 20.4609 50.625C19.7578 50.625 19.0898 50.4932 18.457 50.2295C17.8242 49.9658 17.2705 49.6055 16.7959 49.1484C16.3213 48.6914 15.9434 48.1553 15.6621 47.54C15.3809 46.9248 15.2314 46.2568 15.2139 45.5361C14.5283 45.5186 13.8779 45.3779 13.2627 45.1143C12.6475 44.8506 12.1113 44.4902 11.6543 44.0332C11.1973 43.5762 10.8369 43.04 10.5732 42.4248C10.3096 41.8096 10.1689 41.1592 10.1514 40.4736C9.44824 40.4561 8.79785 40.3154 8.2002 40.0518C7.60254 39.7881 7.0752 39.4277 6.61816 38.9707C6.16113 38.5137 5.80078 37.9775 5.53711 37.3623C5.27344 36.7471 5.12402 36.0967 5.08887 35.4111C4.36816 35.3936 3.7002 35.2441 3.08496 34.9629C2.46973 34.6816 1.93359 34.3037 1.47656 33.8291C1.01953 33.3545 0.65918 32.8096 0.395508 32.1943C0.131836 31.5791 0 30.9111 0 30.1904C0 29.4697 0.131836 28.793 0.395508 28.1602C0.65918 27.5273 1.0459 26.9561 1.55566 26.4463L4.35059 23.625L0.500977 19.749C0.166992 19.415 0 19.0195 0 18.5625C0 18.1055 0.166992 17.71 0.500977 17.376L17.376 0.500977C17.71 0.166992 18.1055 2.32831e-10 18.5625 2.32831e-10C19.0195 2.32831e-10 19.415 0.166992 19.749 0.500977L23.2295 3.98145C23.458 3.91113 23.8975 3.76172 24.5479 3.5332C25.1982 3.30469 25.9629 3.0498 26.8418 2.76855C27.7207 2.4873 28.626 2.17969 29.5576 1.8457C30.4893 1.51172 31.3857 1.21289 32.2471 0.949219C33.1084 0.685547 33.8203 0.457031 34.3828 0.263672C34.9453 0.0703125 35.2969 -0.0175781 35.4375 2.32831e-10ZM8.22656 25.3125C7.7168 25.3125 7.27734 25.4971 6.9082 25.8662L3.92871 28.8193C3.55957 29.1885 3.375 29.6367 3.375 30.1641C3.375 30.6914 3.55078 31.1309 3.90234 31.4824C4.25391 31.834 4.70215 32.0186 5.24707 32.0361C5.79199 32.0361 6.24023 31.8604 6.5918 31.5088L9.57129 28.5557C9.94043 28.1865 10.125 27.7383 10.125 27.2109C10.125 26.6836 9.94043 26.2354 9.57129 25.8662C9.20215 25.4971 8.75391 25.3125 8.22656 25.3125ZM13.2891 30.375C13.043 30.375 12.8057 30.4189 12.5771 30.5068C12.3486 30.5947 12.1377 30.7354 11.9443 30.9287L8.99121 33.9082C8.62207 34.2773 8.4375 34.7256 8.4375 35.2529C8.4375 35.7627 8.62207 36.1934 8.99121 36.5449C9.36035 36.8965 9.80859 37.0811 10.3359 37.0986C10.582 37.0986 10.8193 37.0547 11.0479 36.9668C11.2764 36.8789 11.4873 36.7471 11.6807 36.5713L14.6338 33.5918C15.0029 33.2227 15.1875 32.7832 15.1875 32.2734C15.1875 31.7461 15.0029 31.2979 14.6338 30.9287C14.2646 30.5596 13.8164 30.375 13.2891 30.375ZM18.3516 35.4375C17.8418 35.4375 17.4023 35.6221 17.0332 35.9912L14.0537 38.9443C13.6846 39.3135 13.5 39.7617 13.5 40.2891C13.5 40.8164 13.6758 41.2559 14.0273 41.6074C14.3789 41.959 14.8271 42.1436 15.3721 42.1611C15.917 42.1611 16.3652 41.9854 16.7168 41.6338L19.6963 38.6807C20.0654 38.3115 20.25 37.8633 20.25 37.3359C20.25 36.8086 20.0654 36.3604 19.6963 35.9912C19.3271 35.6221 18.8789 35.4375 18.3516 35.4375ZM18.5625 45.3779C18.5625 45.8877 18.7471 46.3184 19.1162 46.6699C19.4854 47.0215 19.9336 47.2061 20.4609 47.2236C20.707 47.2236 20.9443 47.1797 21.1729 47.0918C21.4014 47.0039 21.6123 46.8721 21.8057 46.6963L24.7588 43.7168C25.1279 43.3477 25.3125 42.9082 25.3125 42.3984C25.3125 41.8711 25.1279 41.4229 24.7588 41.0537C24.3896 40.6846 23.9414 40.5 23.4141 40.5C23.168 40.5 22.9307 40.5439 22.7021 40.6318C22.4736 40.7197 22.2627 40.8604 22.0693 41.0537L19.1162 44.0332C18.7471 44.4023 18.5625 44.8506 18.5625 45.3779ZM45.3516 33.75C45.8613 33.75 46.3008 33.5654 46.6699 33.1963C47.0391 32.8271 47.2324 32.3877 47.25 31.8779C47.25 31.3506 47.0654 30.9023 46.6963 30.5332L30.0322 13.8428C29.9795 13.79 29.8916 13.7461 29.7686 13.7109C29.6455 13.6758 29.5225 13.6406 29.3994 13.6055C29.2764 13.5703 29.1445 13.5439 29.0039 13.5264C28.8633 13.5088 28.7578 13.5 28.6875 13.5C28.2305 13.5 27.7998 13.5879 27.3955 13.7637C26.9912 13.9395 26.6309 14.1768 26.3145 14.4756C25.998 14.7744 25.752 15.1348 25.5762 15.5566C25.4004 15.9785 25.3125 16.418 25.3125 16.875C25.3125 17.8066 25.1367 18.6768 24.7852 19.4854C24.4336 20.2939 23.9502 21.0146 23.335 21.6475C22.7197 22.2803 22.0078 22.7637 21.1992 23.0977C20.3906 23.4316 19.5117 23.6074 18.5625 23.625C17.8594 23.625 17.2002 23.4932 16.585 23.2295C15.9697 22.9658 15.4336 22.6055 14.9766 22.1484C14.5195 21.6914 14.1592 21.1553 13.8955 20.54C13.6318 19.9248 13.5 19.2656 13.5 18.5625C13.5 18.1406 13.5439 17.6748 13.6318 17.165C13.7197 16.6553 13.8604 16.1982 14.0537 15.7939L18.9844 5.90625C19.1426 5.625 19.3799 5.39648 19.6963 5.2207L18.5625 4.08691L4.06055 18.5625L7.62012 22.0957C8.41113 22.0078 9.1582 22.0605 9.86133 22.2539C10.5645 22.4473 11.1797 22.7725 11.707 23.2295C12.2344 23.6865 12.6562 24.2402 12.9727 24.8906C13.2891 25.541 13.4561 26.2705 13.4736 27.0791C14.1768 27.1143 14.8359 27.2549 15.4512 27.501C16.0664 27.7471 16.5938 28.0986 17.0332 28.5557C17.4727 29.0127 17.833 29.54 18.1143 30.1377C18.3955 30.7354 18.5361 31.4033 18.5361 32.1416C19.2393 32.1768 19.8984 32.3174 20.5137 32.5635C21.1289 32.8096 21.6562 33.1611 22.0957 33.6182C22.5352 34.0752 22.8955 34.6025 23.1768 35.2002C23.458 35.7979 23.5986 36.4658 23.5986 37.2041C24.3193 37.2393 24.9873 37.3887 25.6025 37.6523C26.2178 37.916 26.7539 38.2764 27.2109 38.7334C27.668 39.1904 28.0283 39.7354 28.292 40.3682C28.5557 41.001 28.6875 41.6777 28.6875 42.3984C28.6875 43.1895 28.5293 43.9277 28.2129 44.6133C27.8965 45.2988 27.4395 45.8965 26.8418 46.4062C27.1055 46.6523 27.3428 46.8545 27.5537 47.0127C27.7646 47.1709 28.0723 47.25 28.4766 47.25C28.9863 47.25 29.4258 47.0654 29.7949 46.6963C30.1641 46.3271 30.3574 45.8877 30.375 45.3779C30.375 44.8506 30.1904 44.4023 29.8213 44.0332L32.1943 41.6338L33.9082 43.3213C34.3125 43.6904 34.752 43.875 35.2266 43.875C35.7363 43.875 36.1758 43.6904 36.5449 43.3213C36.9141 42.9521 37.1074 42.5127 37.125 42.0029C37.125 41.4756 36.9404 41.0273 36.5713 40.6582L33.5918 37.6787L35.9912 35.3057L38.9443 38.2588C39.3135 38.6279 39.7617 38.8125 40.2891 38.8125C40.8164 38.8125 41.2646 38.6279 41.6338 38.2588C42.0029 37.8896 42.1875 37.4414 42.1875 36.9141C42.1875 36.3867 42.0029 35.9385 41.6338 35.5693L38.6543 32.6162L41.0537 30.2168L44.0332 33.1963C44.4023 33.5654 44.8418 33.75 45.3516 33.75ZM49.9131 18.5625L34.9893 3.6123L21.7002 8.04199L17.1123 17.2178C17.0244 17.376 16.9629 17.5957 16.9277 17.877C16.8926 18.1582 16.875 18.3867 16.875 18.5625C16.875 19.0195 17.042 19.415 17.376 19.749C17.71 20.083 18.1055 20.25 18.5625 20.25C19.0371 20.25 19.4766 20.1621 19.8809 19.9863C20.2852 19.8105 20.6367 19.5732 20.9355 19.2744C21.2344 18.9756 21.4805 18.6152 21.6738 18.1934C21.8672 17.7715 21.9551 17.332 21.9375 16.875C21.9375 15.9434 22.1133 15.0732 22.4648 14.2646C22.8164 13.4561 23.2998 12.7354 23.915 12.1025C24.5303 11.4697 25.2422 10.9863 26.0508 10.6523C26.8594 10.3184 27.7383 10.1426 28.6875 10.125C28.9688 10.125 29.2676 10.1514 29.584 10.2041C29.9004 10.2568 30.2344 10.3271 30.5859 10.415C30.9375 10.5029 31.2451 10.626 31.5088 10.7842C31.7725 10.9424 32.0273 11.127 32.2734 11.3379L44.7188 23.7832L49.9131 18.5625Z" fill="#6B00FF"/>
</g>
<defs>
<clipPath id="clip0_135_500">
<rect width="54" height="54" fill="white"/>
</clipPath>
</defs>
</svg>
