<svg width="54" height="54" viewBox="0 0 54 54" fill="none" xmlns="http://www.w3.org/2000/svg">
<path d="M36.3994 46.8281C33.4631 48.2244 30.2514 48.9451 27 48.9375C14.904 48.9375 5.06255 39.096 5.06255 27C5.06255 21.8109 6.84624 16.9104 10.125 12.9802V16.875H13.5V6.75H3.37505V10.125H8.17092C3.9869 14.7483 1.67544 20.7646 1.68755 27C1.68755 40.9573 13.0427 52.3125 27 52.3125C30.7535 52.3203 34.461 51.4877 37.8507 49.8757L36.3994 46.8281Z" fill="#003EFF"/>
<path d="M35.4375 15.1875C30.105 15.1875 25.7327 19.3337 25.3496 24.57C23.4945 22.8772 21.0739 21.9384 18.5625 21.9375H11.8125V28.6875C11.8125 34.2714 16.3552 38.8125 21.9375 38.8125H25.3125V45.5625H28.6875V32.0625H32.0625C37.6448 32.0625 42.1875 27.5214 42.1875 21.9375V15.1875H35.4375ZM21.9375 35.4375C18.2149 35.4375 15.1875 32.4101 15.1875 28.6875V25.3125H18.5625C22.2851 25.3125 25.3125 28.3399 25.3125 32.0625V33.0514L21.4431 29.1819L19.0569 31.5681L22.9264 35.4375H21.9375ZM38.8125 21.9375C38.8125 25.6601 35.7851 28.6875 32.0625 28.6875H31.0736L34.9431 24.8181L32.5569 22.4319L28.6875 26.3014V25.3125C28.6875 21.5899 31.7149 18.5625 35.4375 18.5625H38.8125V21.9375Z" fill="#003EFF"/>
<path d="M52.3125 27.0001C52.3125 13.0427 40.9574 1.68755 27 1.68755C23.2466 1.67974 19.5391 2.51235 16.1494 4.1243L17.6007 7.17193C20.5369 5.77569 23.7487 5.05492 27 5.06255C39.096 5.06255 48.9375 14.9041 48.9375 27.0001C48.9375 32.1891 47.1539 37.0896 43.875 41.0198V37.1251H40.5V47.2501H50.625V43.8751H45.8292C50.0132 39.2518 52.3246 33.2355 52.3125 27.0001Z" fill="#003EFF"/>
</svg>
