<svg width="54" height="54" viewBox="0 0 54 54" fill="none" xmlns="http://www.w3.org/2000/svg">
<path d="M11.5718 31.5C9.88352 28.7353 8.99341 25.5572 9.00004 22.3177C9.00004 12.4762 17.0595 4.5 27 4.5C36.9405 4.5 45 12.4762 45 22.3177C45.0067 25.5572 44.1166 28.7353 42.4283 31.5" stroke="#FCB700" stroke-width="1.5" stroke-linecap="round"/>
<path d="M33.7499 42.75L33.4574 44.2057C33.1424 45.7965 32.9826 46.5907 32.6249 47.2207C32.0736 48.1917 31.181 48.9231 30.1206 49.2728C29.4344 49.5 28.6199 49.5 26.9999 49.5C25.3799 49.5 24.5654 49.5 23.8791 49.275C22.8183 48.9248 21.9257 48.1926 21.3749 47.2207C21.0171 46.5907 20.8574 45.7965 20.5424 44.2057L20.2499 42.75M16.6116 38.4705C16.4046 37.8495 16.3011 37.5367 16.3124 37.2847C16.3251 37.0242 16.413 36.7729 16.5656 36.5613C16.7181 36.3496 16.9287 36.1867 17.1719 36.0923C17.4059 36 17.7344 36 18.3869 36H35.6129C36.2676 36 36.5939 36 36.8279 36.09C37.0714 36.1846 37.2822 36.3479 37.4347 36.5599C37.5873 36.772 37.675 37.0238 37.6874 37.2847C37.6986 37.5367 37.5951 37.8472 37.3881 38.4705C37.0056 39.6202 36.8144 40.1963 36.5196 40.662C35.9031 41.6354 34.9367 42.3352 33.8196 42.6172C33.2841 42.75 32.6811 42.75 31.4729 42.75H22.5269C21.3186 42.75 20.7134 42.75 20.1801 42.615C19.0633 42.3335 18.097 41.6345 17.4801 40.662C17.1854 40.1963 16.9941 39.6202 16.6116 38.4705Z" stroke="#FCB700" stroke-width="1.5"/>
<path d="M18.5625 21.9375L23.625 27V36M35.4375 21.9375L30.375 27V36M18.5625 23.625C19.0101 23.625 19.4393 23.4472 19.7557 23.1307C20.0722 22.8143 20.25 22.3851 20.25 21.9375C20.25 21.4899 20.0722 21.0607 19.7557 20.7443C19.4393 20.4278 19.0101 20.25 18.5625 20.25C18.1149 20.25 17.6857 20.4278 17.3693 20.7443C17.0528 21.0607 16.875 21.4899 16.875 21.9375C16.875 22.3851 17.0528 22.8143 17.3693 23.1307C17.6857 23.4472 18.1149 23.625 18.5625 23.625ZM35.4375 23.625C34.9899 23.625 34.5607 23.4472 34.2443 23.1307C33.9278 22.8143 33.75 22.3851 33.75 21.9375C33.75 21.4899 33.9278 21.0607 34.2443 20.7443C34.5607 20.4278 34.9899 20.25 35.4375 20.25C35.8851 20.25 36.3143 20.4278 36.6307 20.7443C36.9472 21.0607 37.125 21.4899 37.125 21.9375C37.125 22.3851 36.9472 22.8143 36.6307 23.1307C36.3143 23.4472 35.8851 23.625 35.4375 23.625Z" stroke="#FCB700" stroke-width="1.5" stroke-linecap="round" stroke-linejoin="round"/>
</svg>
