<svg width="54" height="54" viewBox="0 0 54 54" fill="none" xmlns="http://www.w3.org/2000/svg">
<g clip-path="url(#clip0_135_526)">
<path d="M54.0001 15.3901V12.1276C54.0001 10.8148 53.4786 9.55575 52.5503 8.62745C51.622 7.69914 50.363 7.17763 49.0501 7.17763H42.9977L42.3902 3.48763C42.2292 2.50818 41.7236 1.61849 40.9645 0.979006C40.2053 0.339526 39.2427 -0.00763977 38.2501 0.000127567H30.0826C29.094 -0.00226959 28.1367 0.347332 27.3823 0.986337C26.6278 1.62534 26.1255 2.51202 25.9652 3.48763L25.3577 7.17763H19.3051C17.9923 7.17763 16.7333 7.69914 15.805 8.62745C14.8767 9.55575 14.3552 10.8148 14.3552 12.1276V15.3901H54.0001ZM29.2502 4.14013C29.2823 3.95543 29.3792 3.78826 29.5236 3.66865C29.6679 3.54904 29.8502 3.48486 30.0377 3.48763H38.2501C38.4376 3.48486 38.6199 3.54904 38.7642 3.66865C38.9086 3.78826 39.0055 3.95543 39.0377 4.14013L39.5551 7.29013H28.7551L29.2502 4.14013ZM35.8652 18.7651V22.0501C35.8652 22.4977 35.6874 22.9269 35.3709 23.2434C35.0544 23.5598 34.6252 23.7376 34.1777 23.7376C33.7301 23.7376 33.3009 23.5598 32.9844 23.2434C32.6679 22.9269 32.4902 22.4977 32.4902 22.0501V18.7651H14.3552V29.4751C14.3552 30.1252 14.4832 30.7688 14.7319 31.3694C14.9807 31.97 15.3453 32.5157 15.805 32.9753C16.2646 33.435 16.8103 33.7996 17.4109 34.0483C18.0114 34.2971 18.6551 34.4251 19.3051 34.4251H49.0501C50.363 34.4251 51.622 33.9036 52.5503 32.9753C53.4786 32.047 54.0001 30.7879 54.0001 29.4751V18.7651H35.8652ZM38.6777 42.5026L31.9276 44.7526C31.84 44.7477 31.7529 44.7685 31.6769 44.8125C31.6009 44.8565 31.5395 44.9217 31.5002 45.0001C31.1893 45.6746 30.6909 46.2453 30.0646 46.6443C29.4382 47.0432 28.7103 47.2536 27.9677 47.2501H20.2502C19.9936 47.2501 19.7475 47.1482 19.566 46.9668C19.3846 46.7853 19.2826 46.5392 19.2826 46.2826C19.2826 46.026 19.3846 45.7799 19.566 45.5985C19.7475 45.4171 19.9936 45.3151 20.2502 45.3151H27.9901C28.5033 45.3151 28.9955 45.1113 29.3584 44.7484C29.7213 44.3855 29.9251 43.8933 29.9251 43.3801C29.9251 42.8669 29.7213 42.3748 29.3584 42.0119C28.9955 41.649 28.5033 41.4451 27.9901 41.4451H21.2401C19.0089 39.7375 16.3072 38.7558 13.5002 38.6326H9.56265C8.35882 38.6385 7.17275 38.9235 6.09765 39.4651L0.270151 42.3676C0.19825 42.4057 0.136332 42.4601 0.0894203 42.5266C0.0425087 42.5931 0.0119249 42.6696 0.000150655 42.7501V53.1676C-0.00205046 53.2548 0.0199046 53.3409 0.0635861 53.4163C0.107268 53.4917 0.170972 53.5536 0.247651 53.5951C0.3229 53.6386 0.40826 53.6614 0.495151 53.6614C0.582041 53.6614 0.667401 53.6386 0.742651 53.5951L6.95265 49.7251C7.19671 49.5678 7.47237 49.4661 7.7601 49.4273C8.04784 49.3884 8.3406 49.4133 8.61765 49.5001C27.8777 56.0026 21.4427 56.0251 43.1552 45.0001C43.3054 44.9266 43.4345 44.8163 43.5305 44.6794C43.6266 44.5425 43.6863 44.3835 43.7043 44.2173C43.7223 44.051 43.6979 43.8829 43.6333 43.7287C43.5688 43.5744 43.4662 43.439 43.3352 43.3351C42.693 42.813 41.9287 42.4627 41.114 42.317C40.2993 42.1714 39.4609 42.2353 38.6777 42.5026Z" fill="#6B00FF"/>
</g>
<defs>
<clipPath id="clip0_135_526">
<rect width="54" height="54" fill="white"/>
</clipPath>
</defs>
</svg>
