<svg width="54" height="54" viewBox="0 0 54 54" fill="none" xmlns="http://www.w3.org/2000/svg">
<path d="M32.2712 31.5155L34.6657 31.7669V51.2578L28.0516 44.1951V32.9589L29.9726 33.897L32.2712 31.5155ZM21.7296 31.5155L19.3338 31.7669V51.2578L25.9478 44.1951V32.9589L24.0269 33.897L21.7296 31.5155ZM39.8681 19.3044L40.643 22.0016L38.3169 23.5699L38.1221 26.3724L35.3999 27.05L34.2605 29.6144L31.4698 29.3196L29.5213 31.3327L27.0004 30.1011L24.4795 31.3327L22.5309 29.3129L19.7402 29.6077L18.6008 27.0435L15.8787 26.3724L15.6839 23.5738L13.3511 22.0003L14.1261 19.3031L12.4814 17.0309L14.1314 14.7612L13.3511 12.0693L15.6786 10.501L15.8734 7.70238L18.6008 7.03139L19.7402 4.46713L22.5309 4.76181L24.4795 2.74219L27.0004 3.97375L29.5213 2.74219L31.4698 4.76181L34.2605 4.46713L35.3999 7.03139L38.1221 7.70903L38.3169 10.5075L40.643 12.0759L39.8681 14.7731L41.5193 17.0309L39.8681 19.3044ZM34.6776 17.0309C34.6776 15.5239 34.2307 14.0508 33.3935 12.7978C32.5563 11.5449 31.3663 10.5683 29.9741 9.99159C28.5818 9.41491 27.0498 9.26402 25.5718 9.55801C24.0938 9.852 22.7362 10.5777 21.6706 11.6432C20.6051 12.7088 19.8794 14.0664 19.5854 15.5444C19.2914 17.0224 19.4423 18.5544 20.019 19.9467C20.5957 21.3389 21.5723 22.5289 22.8252 23.3661C24.0782 24.2033 25.5513 24.6502 27.0583 24.6502C29.0781 24.647 31.0142 23.8433 32.4424 22.415C33.8706 20.9868 34.6744 19.0507 34.6776 17.0309ZM27.0583 11.5167C25.9677 11.5167 24.9016 11.8401 23.9948 12.4459C23.088 13.0518 22.3813 13.913 21.9639 14.9206C21.5466 15.9282 21.4374 17.0369 21.6501 18.1065C21.8629 19.1761 22.388 20.1586 23.1592 20.9298C23.9303 21.701 24.9128 22.2262 25.9825 22.4389C27.0521 22.6517 28.1608 22.5425 29.1684 22.1252C30.1759 21.7079 31.0371 21.0011 31.6431 20.0943C32.249 19.1876 32.5724 18.1215 32.5724 17.0309C32.5682 15.5701 31.9858 14.1704 30.9525 13.1378C29.9192 12.1052 28.5191 11.5238 27.0583 11.5207V11.5167Z" fill="#003EFF"/>
</svg>
